<?xml version="1.0" encoding="UTF-8"?>
<svg width="16px" height="12px" viewBox="0 0 16 12" version="1.1" xmlns="http://www.w3.org/2000/svg"
>
  <g fill="currentColor">
    <path
      d="M15.9929106,10.6838173 C15.9929106,8.40146353 14.1780269,6.44908865 11.9231714,6.33909569 C13.1880904,6.22910273 14.1780269,5.15667147 14.1780269,3.8642543 C14.1780269,2.48934242 13.0780974,1.38941291 11.7031855,1.38941291 C11.4831996,1.38941291 11.2632137,1.41691115 11.0707261,1.47190763 C11.3182102,1.93937766 11.4557014,2.4618442 11.4557014,3.03930717 C11.4557014,4.13923668 10.9057366,5.12917324 10.0532913,5.73413448 C10.4382666,6.06411333 10.9332349,6.28409923 11.4831996,6.33909571 C11.2357155,6.33909571 10.9607331,6.39409219 10.713249,6.44908867 C12.3081468,7.32903227 13.4355745,8.97892653 13.6280622,10.8488067 L15.9654124,10.8488067 C15.9929106,10.8763049 15.9929106,10.7388137 15.9929106,10.6838173 Z"
    ></path>
    <path
      d="M5.51608203,6.53158337 C5.18610318,6.42159041 4.85612432,6.36659395 4.49864724,6.36659395 C5.10360847,6.31159747 5.68107147,6.03661509 6.06604678,5.62414154 C5.32359437,5.0191803 4.85612432,4.11173846 4.85612432,3.09430367 C4.85612432,2.57183715 4.99361552,2.07686888 5.21360142,1.63689707 C4.9111208,1.52690411 4.60864018,1.44440941 4.27866133,1.44440941 C2.90374944,1.44440941 1.80381994,2.54433891 1.80381994,3.9192508 C1.80381994,5.21166796 2.82125473,6.28409925 4.08617367,6.39409219 C1.80381994,6.47658689 0.0164344974,8.40146353 0.0164344974,10.6838173 C0.0164344974,10.7113155 0.0164344974,10.8763049 0.0164344974,10.8763049 L2.7112618,10.8763049 C2.90374946,9.033923 3.97618073,7.41152698 5.51608203,6.53158337 Z"
    ></path>
    <path
      d="M8.43089523,6.06411332 C9.97079655,5.92662212 11.180719,4.63420495 11.180719,3.03930717 C11.180719,1.36191467 9.83330536,0.0145010281 8.15591286,0.0145010281 C6.47852036,0.0145010281 5.13110671,1.36191467 5.13110671,3.03930717 C5.13110671,4.63420495 6.36852742,5.92662214 7.90842872,6.06411332 C5.15860495,6.20160451 2.95874592,8.48395823 2.95874592,11.2887785 C2.95874592,11.343775 2.95874592,11.3712732 2.95874592,11.4262697 L13.4080763,11.4262697 C13.4080763,11.3712732 13.4080763,11.343775 13.4080763,11.2887785 C13.4080763,8.48395824 11.2082172,6.20160451 8.43089523,6.06411332 Z"
    ></path>
  </g>
</svg>
