<?xml version="1.0" encoding="UTF-8"?>
<svg width="16px" height="18px" viewBox="0 0 16 18" version="1.1" xmlns="http://www.w3.org/2000/svg"
>
  <g fill="currentColor">
    <path
      d="M4.52488688,1.17285068 L5.68325792,2.67873303 L9.73755656,2.67873303 L10.8959276,1.17285068 L11.0117647,0.941176471 L11.0117647,0.825339367 C11.0117647,0.593665158 10.8959276,0.477828054 10.6642534,0.36199095 C10.6642534,0.36199095 9.04253394,0.014479638 7.65248869,0.014479638 C6.26244344,0.014479638 4.64072398,0.36199095 4.64072398,0.36199095 C4.06153846,0.593665158 4.52488688,1.17285068 4.52488688,1.17285068 Z M10.0850679,3.72126697 L5.91493213,3.72126697 C2.67149321,4.87963801 0.007239819,8.47058824 0.007239819,11.8298643 C0.007239819,16 2.3239819,17.9692308 8,17.9692308 C13.6760181,17.9692308 15.9927602,16 15.9927602,11.8298643 C15.9927602,8.47058824 13.3285068,4.87963801 10.0850679,3.72126697 Z M10.8959276,12.2932127 C11.1276018,12.2932127 11.359276,12.5248869 11.359276,12.7565611 C11.359276,12.9882353 11.1276018,13.2199095 10.8959276,13.2199095 L8.57918552,13.2199095 L8.57918552,14.841629 C8.57918552,15.0733032 8.34751131,15.3049774 8.1158371,15.3049774 C7.8841629,15.3049774 7.65248869,15.0733032 7.65248869,14.841629 L7.65248869,13.3357466 L5.33574661,13.3357466 C5.1040724,13.3357466 4.87239819,13.1040724 4.87239819,12.8723982 C4.87239819,12.640724 5.1040724,12.4090498 5.33574661,12.4090498 L7.65248869,12.4090498 L7.65248869,11.1348416 L5.33574661,11.1348416 C5.1040724,11.1348416 4.87239819,10.9031674 4.87239819,10.6714932 C4.87239819,10.439819 5.1040724,10.2081448 5.33574661,10.2081448 L7.76832579,10.2081448 L7.76832579,10.0923077 C7.76832579,10.0923077 7.65248869,10.0923077 7.65248869,9.97647059 L5.79909502,7.77556561 C5.56742081,7.65972851 5.56742081,7.31221719 5.79909502,7.08054299 C6.03076923,6.84886878 6.37828054,6.96470588 6.49411765,7.19638009 L8.1158371,9.04977376 L9.73755656,7.19638009 C9.96923077,6.96470588 10.200905,6.96470588 10.4325792,7.08054299 C10.6642534,7.31221719 10.6642534,7.5438914 10.5484163,7.77556561 L8.69502262,9.97647059 C8.69502262,10.0923077 8.57918552,10.0923077 8.46334842,10.0923077 L10.8959276,10.0923077 C11.1276018,10.0923077 11.359276,10.3239819 11.359276,10.5556561 C11.359276,10.7873303 11.1276018,11.0190045 10.8959276,11.0190045 L8.57918552,11.0190045 L8.57918552,12.2932127 L10.8959276,12.2932127 Z"
    ></path>
  </g>
</svg>
