<?xml version="1.0" encoding="UTF-8"?>
<svg width="16px" height="10px" viewBox="0 0 16 10" version="1.1" xmlns="http://www.w3.org/2000/svg"
>
  <g fill="currentColor">
    <path
      d="M14.75,1.25578125 L14.75,8.30675 L14.6291562,8.30675 C14.2291406,7.72228125 13.5570469,7.338 12.796875,7.338 C12.0367031,7.338 11.3646094,7.72228125 10.9645938,8.30675 L1.25,8.30675 L1.25,1.25578125 L10.9645938,1.25578125 C11.3646094,1.84026562 12.0367031,2.22453125 12.796875,2.22453125 C13.5570469,2.22453125 14.2291406,1.84026562 14.6291562,1.25578125 L14.75,1.25578125 Z M16,0.00578125 L13.765625,0.00578125 C13.765625,0.540796875 13.3319062,0.97453125 12.796875,0.97453125 C12.2618594,0.97453125 11.828125,0.540796875 11.828125,0.00578125 L0,0.00578125 L0,9.55675 L11.828125,9.55675 C11.828125,9.02171875 12.2618594,8.588 12.796875,8.588 C13.3319062,8.588 13.765625,9.02171875 13.765625,9.55675 L16,9.55675 L16,0.00578125 Z"
    ></path>
    <path
      d="M6.7145625,2.19584375 L5.50496875,4.21184375 L4.29534375,2.19584375 L3.3123125,2.19584375 L4.722,4.3949375 L3.70896875,4.3949375 L3.70896875,5.02660937 L5.06223438,5.02660937 L5.06223438,5.438125 L3.70896875,5.438125 L3.70896875,6.04157812 L5.06223438,6.04157812 L5.06223438,7.36670312 L5.91945313,7.36670312 L5.91945313,6.04157812 L7.30095313,6.04157812 L7.30095313,5.438125 L5.91945313,5.438125 L5.91945313,5.02660937 L7.30095313,5.02660937 L7.30095313,4.3949375 L6.28585938,4.3949375 L7.66735938,2.19584375 L6.7145625,2.19584375 Z M9.72395312,6.18510937 L10.546875,6.18510937 L10.546875,7.61845313 L9.72395312,7.61845313 L9.72395312,6.18510937 Z M9.72395312,4.0645625 L10.546875,4.0645625 L10.546875,5.4979375 L9.72395312,5.4979375 L9.72395312,4.0645625 Z M9.72395312,1.94403125 L10.546875,1.94403125 L10.546875,3.37740625 L9.72395312,3.37740625 L9.72395312,1.94403125 Z"
    ></path>
  </g>
</svg>
