<?xml version="1.0" encoding="UTF-8"?>
<svg width="16px" height="20px" viewBox="0 0 16 20" version="1.1" xmlns="http://www.w3.org/2000/svg"
>
  <g fill="currentColor">
    <path
      d="M15.0635112,19.9668442 L0.939553566,19.9668442 C0.430842349,19.9668442 0.0183117522,19.5478257 0.0183117522,19.0313091 L0.0183117522,18.0958138 L15.984733,18.0958138 L15.984733,19.0313091 C15.9847131,19.5478257 15.5721625,19.9668442 15.0635112,19.9668442 Z M0.018311772,5.62199855 C0.018311772,5.10516249 0.430862335,4.68646341 0.939553586,4.68646341 L3.39565276,4.68646341 C3.39565276,2.10306167 5.45770685,0.00882759851 8.00152242,0.00882759851 C10.5449787,0.00882759851 12.6070527,2.10308164 12.6070527,4.68646341 L15.0635112,4.68646341 C15.5721625,4.68646341 15.9847131,5.10518245 15.9847131,5.62199855 L15.9847131,17.1602188 L0.0182918067,17.1602188 L0.0182918067,5.62199855 L0.018311772,5.62199855 Z M10.7649284,4.68646341 C10.7649284,3.13633453 9.52759615,1.87987793 8.00150243,1.87987793 C6.47538877,1.87987793 5.23809642,3.13631457 5.23809642,4.68646341 L10.7649284,4.68646341 Z"
    ></path>
  </g>
</svg>
