<?xml version="1.0" encoding="UTF-8"?>
<svg width="16px" height="18px" viewBox="0 0 16 18" version="1.1" xmlns="http://www.w3.org/2000/svg"
>
  <g fill="currentColor">
    <path
      d="M6.46799811,6.17242787 C8.4619395,6.17242787 10.5357945,5.73387771 11.7812769,4.89770874 L11.7812769,6.41996507 L12.9351511,6.41996507 L12.9351511,3.08698387 C12.9351511,1.08329691 9.60411901,0.00153986667 6.46994722,0.00153986667 C3.33577543,0.00153986667 0.00279422857,1.08329693 0.00279422857,3.08698387 L0.00279422857,12.1834887 C0.00279422857,14.1871756 3.33382632,15.2689327 6.46799811,15.2689327 L6.46799811,14.1170076 C3.17594827,14.1170076 1.15471931,12.990421 1.15471931,12.1834887 L1.15471931,9.44888482 C2.40020177,10.2831047 4.47210762,10.7236039 6.46799811,10.7236039 L6.46799811,9.56972975 C3.17594827,9.56972975 1.15471931,8.44314312 1.15471931,7.63621084 L1.15471931,4.89965787 C2.40020177,5.73387771 4.47405672,6.17242787 6.46799811,6.17242787 Z M6.46799811,1.15346495 C9.76004796,1.15346495 11.7812769,2.28005158 11.7812769,3.08698387 C11.7812769,3.89391615 9.76004796,5.02050278 6.46799811,5.02050278 C3.17594827,5.02050278 1.15471931,3.89391615 1.15471931,3.08698387 C1.15471931,2.28005158 3.17789737,1.15346495 6.46799811,1.15346495 Z M11.6370426,6.8039401 C8.77379739,6.8039401 7.27687952,7.90518827 7.27687952,8.99279267 L7.27687952,14.838179 C7.27687952,15.9257834 8.77574651,17.0270316 11.6370426,17.0270316 C14.4788477,17.0270316 15.9738164,15.9413763 15.9972058,14.8615683 L15.9991549,14.8615683 L15.9991549,8.99279267 C15.9972058,7.90518827 14.5002879,6.8039401 11.6370426,6.8039401 Z M11.6370426,7.95586518 C13.7537781,7.95586518 14.8452807,8.68288389 14.8452807,8.99279267 C14.8452807,9.30270145 13.7537781,10.0297202 11.6370426,10.0297202 C9.52030722,10.0297202 8.42880459,9.30270145 8.42880459,8.99279267 C8.42880459,8.68288389 9.52030722,7.95586518 11.6370426,7.95586518 Z M11.6370426,15.8751065 C9.52030722,15.8751065 8.42880461,15.1480878 8.42880461,14.838179 L8.42880461,13.4426149 C9.15972154,13.8402338 10.2336822,14.105313 11.6370426,14.105313 C13.0404031,14.105313 14.1124146,13.8402338 14.8452807,13.4426149 L14.8452807,14.838179 C14.8452807,15.1480878 13.7537781,15.8751065 11.6370426,15.8751065 Z M11.6370426,12.9514388 C9.52030722,12.9514388 8.42880461,12.2244201 8.42880461,11.9145113 L8.42880461,10.5189472 C9.15972154,10.916566 10.2336822,11.1816452 11.6370426,11.1816452 C13.0404031,11.1816452 14.1124146,10.916566 14.8452807,10.5189472 L14.8452807,11.9145113 C14.8452807,12.2244201 13.7537781,12.9514388 11.6370426,12.9514388 Z"
    ></path>
  </g>
</svg>
