<?xml version="1.0" standalone="no"?>
<!DOCTYPE svg PUBLIC "-//W3C//DTD SVG 20010904//EN"
  "http://www.w3.org/TR/2001/REC-SVG-20010904/DTD/svg10.dtd">
<svg version="1.0" xmlns="http://www.w3.org/2000/svg"
     width="604.000000pt" height="604.000000pt" viewBox="0 0 604.000000 604.000000"
     preserveAspectRatio="xMidYMid meet">
  <metadata>
    Created by potrace 1.11, written by Peter Selinger 2001-2013
  </metadata>
  <g transform="translate(0.000000,604.000000) scale(0.100000,-0.100000)"
     fill="#000000" stroke="none">
    <path d="M2945 5781 c-57 -27 -2868 -2841 -2890 -2893 -26 -64 -15 -133 31
-187 41 -49 126 -71 194 -50 27 9 345 321 1388 1363 l1352 1351 1348 -1346
c741 -741 1358 -1353 1371 -1359 37 -19 84 -23 129 -11 88 24 135 94 127 188
-3 32 -10 60 -15 61 -6 2 -10 9 -10 15 0 7 -640 652 -1422 1434 -1012 1012
-1434 1427 -1460 1438 -49 20 -94 19 -143 -4z"/>
    <path d="M2408 3555 c-2 -2 -26 -5 -55 -9 -28 -3 -63 -10 -77 -16 -14 -5 -26
-7 -26 -4 0 4 -7 1 -15 -6 -8 -7 -15 -10 -15 -7 0 3 -27 -8 -60 -24 -33 -16
-63 -29 -66 -29 -3 0 -16 -8 -29 -17 -12 -10 -33 -25 -46 -33 -52 -33 -160
-151 -208 -226 -28 -43 -51 -83 -51 -87 0 -4 -9 -29 -21 -54 -12 -26 -32 -89
-46 -142 -22 -82 -26 -119 -26 -256 -1 -88 2 -175 6 -192 4 -18 10 -48 13 -65
18 -98 83 -248 160 -366 74 -113 124 -174 253 -303 103 -102 350 -309 370
-309 5 0 11 -3 13 -8 4 -10 121 -94 253 -183 61 -40 112 -77 113 -81 2 -4 7
-8 12 -8 5 0 32 -15 60 -34 46 -30 59 -34 105 -32 46 3 66 12 156 72 126 83
402 275 409 284 3 3 23 19 45 35 137 100 348 296 454 420 46 54 120 165 165
248 30 54 86 197 95 240 0 4 1 8 2 10 29 95 32 368 5 487 -46 205 -117 342
-240 466 -123 122 -270 197 -436 222 -52 7 -189 7 -235 -1 -143 -25 -290 -103
-388 -203 l-37 -38 -38 36 c-101 100 -175 144 -316 188 -54 17 -246 35 -258
25z"/>
    <path d="M757 2586 c-20 -8 -44 -19 -52 -26 -30 -25 -55 -78 -61 -131 -3 -30
-8 -57 -11 -61 -2 -5 0 -8 5 -8 6 0 7 -14 2 -35 -4 -19 -4 -37 0 -40 4 -3 5
-20 1 -37 -9 -40 -9 -43 -1 -91 4 -20 4 -40 0 -42 -4 -3 -4 -20 0 -39 4 -19 5
-37 2 -40 -7 -8 -8 -86 -1 -86 3 0 3 -19 -1 -42 -3 -24 -3 -57 1 -75 3 -18 4
-35 1 -37 -7 -8 -8 -86 -1 -86 3 0 3 -19 -1 -42 -3 -24 -3 -57 1 -75 3 -18 4
-35 1 -38 -5 -5 -5 -116 -1 -142 1 -4 0 -12 -1 -18 -4 -24 -1 -216 5 -224 3
-5 1 -12 -3 -15 -5 -3 -6 -26 -2 -51 4 -25 4 -45 1 -45 -7 0 -4 -107 3 -126 2
-6 1 -28 -4 -48 -4 -20 -4 -38 0 -41 4 -3 4 -21 0 -40 -4 -19 -4 -37 0 -40 4
-3 4 -21 0 -40 -4 -19 -4 -37 0 -40 4 -3 4 -21 0 -40 -4 -19 -4 -37 0 -40 4
-3 4 -21 0 -40 -4 -19 -4 -37 0 -40 4 -3 5 -20 1 -38 -5 -18 -5 -41 -1 -52 4
-11 5 -25 3 -31 -6 -15 23 -83 45 -107 9 -11 34 -28 54 -38 36 -18 102 -19
2275 -19 2151 0 2240 1 2278 19 22 10 48 27 57 37 29 33 49 93 48 143 0 25 -1
55 0 66 0 41 0 116 -1 123 -1 4 -1 12 0 17 3 14 3 209 0 221 -1 5 -1 14 0 19
3 14 3 209 0 221 -1 5 -1 14 0 19 2 14 2 290 0 301 -1 5 -1 14 0 19 2 14 2
290 0 301 -1 5 -1 14 0 19 2 14 2 290 0 301 -1 5 -1 14 0 19 3 20 1 281 -2
345 -3 36 -9 66 -16 68 -6 2 -11 9 -11 16 0 38 -93 85 -160 82 -60 -3 -104
-28 -138 -78 -27 -42 -33 -79 -32 -213 1 -27 0 -61 0 -75 -1 -14 -2 -32 -1
-40 0 -8 0 -53 0 -100 0 -47 0 -91 0 -97 0 -11 0 -54 0 -120 0 -10 0 -56 0
-103 0 -47 0 -91 0 -97 0 -11 0 -54 0 -120 0 -10 0 -56 0 -103 0 -47 0 -91 0
-97 0 -11 0 -54 0 -120 0 -10 0 -56 0 -103 -1 -47 0 -98 1 -115 1 -16 2 -34 2
-40 0 -5 -1 -51 -2 -102 -1 -51 0 -96 3 -100 3 -5 2 -27 -3 -51 -4 -23 -4 -59
0 -81 7 -37 6 -38 -24 -40 -17 -1 -38 -2 -46 -1 -8 0 -26 0 -40 -1 -14 0 -32
0 -40 0 -8 1 -26 1 -40 0 -29 -1 -54 -1 -130 1 -30 1 -59 1 -65 0 -5 -1 -14
-1 -20 0 -12 2 -206 2 -220 0 -5 -1 -14 -1 -20 0 -22 5 -283 2 -292 -3 -5 -3
-15 -2 -22 3 -8 4 -26 4 -41 0 -15 -4 -33 -4 -40 0 -7 4 -25 4 -40 0 -15 -4
-33 -4 -40 0 -7 4 -24 5 -38 1 -14 -4 -47 -4 -74 -1 -27 4 -51 3 -54 -2 -3 -5
-10 -6 -15 -2 -6 3 -32 6 -57 5 -60 -1 -72 -1 -162 0 -41 1 -79 0 -85 -1 -5
-1 -14 -1 -20 0 -21 4 -106 1 -115 -5 -6 -3 -10 -3 -10 2 0 4 -26 7 -57 6 -32
-1 -70 -2 -85 -2 -16 -1 -40 -1 -55 -2 -16 0 -35 0 -43 0 -8 1 -26 1 -40 0
-14 0 -32 0 -40 0 -8 1 -26 1 -40 0 -29 -1 -54 -1 -130 1 -30 1 -59 1 -65 0
-5 -1 -14 -1 -20 0 -12 2 -206 2 -220 0 -5 -1 -14 -1 -20 0 -22 5 -283 2 -292
-3 -5 -3 -15 -2 -22 3 -8 4 -26 4 -41 0 -15 -4 -33 -4 -40 0 -7 4 -25 4 -40 0
-15 -4 -33 -4 -40 0 -7 4 -24 5 -38 1 -14 -4 -47 -4 -74 -1 -27 4 -51 3 -54
-2 -3 -5 -10 -6 -15 -2 -6 3 -32 6 -57 5 -60 -1 -72 -1 -162 0 -41 1 -79 0
-85 -1 -5 -1 -14 -1 -20 0 -21 4 -106 1 -115 -5 -6 -3 -10 -3 -10 2 0 9 -138
9 -146 0 -3 -3 -18 -2 -33 3 -16 4 -34 4 -41 0 -6 -4 -27 -4 -46 0 -19 5 -37
4 -40 -1 -3 -5 -11 -6 -17 -2 -7 4 -20 6 -29 5 -10 -2 -18 3 -18 10 -1 7 -1
74 0 148 0 74 1 142 1 150 1 228 0 1340 -1 1440 -2 149 -30 204 -117 236 -48
17 -78 17 -126 0z"/>
  </g>
</svg>
