<?xml version="1.0" encoding="UTF-8"?>
<svg width="151px" height="139px" viewBox="0 0 151 139" version="1.1" xmlns="http://www.w3.org/2000/svg">
  <!-- Generator: Sketch 52.2 (67145) - http://www.bohemiancoding.com/sketch -->
  <title>logo</title>
  <desc>Created with Sketch.</desc>
  <g id="Page-1" stroke="none" stroke-width="1" fill="none" fill-rule="evenodd">
    <g id="logo" transform="translate(1.000000, 0.000000)" fill-rule="nonzero">
      <path
        d="M1.671,77.329 C0.109,75.766 0.109,73.234 1.671,71.672 L71.671,1.672 C73.234,0.11 75.766,0.11 77.328,1.672 L147.328,71.672 C148.891,73.235 148.891,75.768 147.328,77.329 C146.547,78.109 145.523,78.5 144.5,78.5 C143.477,78.5 142.453,78.109 141.671,77.329 L74.5,10.157 L7.329,77.329 C5.766,78.891 3.234,78.891 1.671,77.329 Z"
        id="home-path" stroke="#B4B4B4" fill="#FFFFFF"></path>
      <path
        d="M72.281,117.828 C56.657,107.412 40.5,96.641 40.5,79.5 C40.5,64.12 50.688,56.073 60.752,56.073 C65.895,56.073 71.075,58.225 74.5,62.419 C77.925,58.226 83.104,56.073 88.248,56.073 C98.312,56.073 108.5,64.12 108.5,79.5 C108.5,96.641 92.343,107.412 76.719,117.828 C76.047,118.275 75.274,118.5 74.5,118.5 C73.727,118.5 72.953,118.275 72.281,117.828 Z"
        id="home-path" fill="#E7254A"></path>
      <path
        d="M19.5,80.5 C17.291,80.5 15.5,82.291 15.5,84.5 L15.5,134.5 C15.5,136.709 17.291,138.5 19.5,138.5 L129.5,138.5 C131.709,138.5 133.5,136.709 133.5,134.5 L133.5,84.5 C133.5,82.291 131.709,80.5 129.5,80.5 C127.291,80.5 125.5,82.291 125.5,84.5 L125.5,130.5 L23.5,130.5 L23.5,84.5 C23.5,82.291 21.709,80.5 19.5,80.5 Z"
        id="home-path" stroke="#B4B4B4" fill="#FFFFFF"></path>
    </g>
  </g>
</svg>
